<svg width="2000" height="200" viewBox="0 0 2000 200" fill="none" xmlns="http://www.w3.org/2000/svg">
<path d="M1886.84 122H1881.03V83.4688L1869.38 87.75V82.5L1885.94 76.2812H1886.84V122ZM1932.31 102.594C1932.31 109.365 1931.16 114.396 1928.84 117.688C1926.53 120.979 1922.92 122.625 1918 122.625C1913.15 122.625 1909.55 121.021 1907.22 117.812C1904.89 114.583 1903.68 109.771 1903.59 103.375V95.6562C1903.59 88.9688 1904.75 84 1907.06 80.75C1909.38 77.5 1913 75.875 1917.94 75.875C1922.83 75.875 1926.44 77.4479 1928.75 80.5938C1931.06 83.7188 1932.25 88.5521 1932.31 95.0938V102.594ZM1926.53 94.6875C1926.53 89.7917 1925.84 86.2292 1924.47 84C1923.09 81.75 1920.92 80.625 1917.94 80.625C1914.98 80.625 1912.82 81.7396 1911.47 83.9688C1910.11 86.1979 1909.42 89.625 1909.38 94.25V103.5C1909.38 108.417 1910.08 112.052 1911.5 114.406C1912.94 116.74 1915.1 117.906 1918 117.906C1920.85 117.906 1922.97 116.802 1924.34 114.594C1925.74 112.385 1926.47 108.906 1926.53 104.156V94.6875Z" fill="black"/>
<path d="M1886.84 122V124H1888.84V122H1886.84ZM1881.03 122H1879.03V124H1881.03V122ZM1881.03 83.4688H1883.03V80.6035L1880.34 81.5914L1881.03 83.4688ZM1869.38 87.75H1867.38V90.6152L1870.06 89.6274L1869.38 87.75ZM1869.38 82.5L1868.67 80.6276L1867.38 81.1146V82.5H1869.38ZM1885.94 76.2812V74.2812H1885.57L1885.23 74.4089L1885.94 76.2812ZM1886.84 76.2812H1888.84V74.2812H1886.84V76.2812ZM1886.84 120H1881.03V124H1886.84V120ZM1883.03 122V83.4688H1879.03V122H1883.03ZM1880.34 81.5914L1868.69 85.8726L1870.06 89.6274L1881.72 85.3461L1880.34 81.5914ZM1871.38 87.75V82.5H1867.38V87.75H1871.38ZM1870.08 84.3724L1886.64 78.1536L1885.23 74.4089L1868.67 80.6276L1870.08 84.3724ZM1885.94 78.2812H1886.84V74.2812H1885.94V78.2812ZM1884.84 76.2812V122H1888.84V76.2812H1884.84ZM1907.22 117.812L1905.6 118.984L1905.6 118.989L1907.22 117.812ZM1903.59 103.375H1901.59V103.388L1901.59 103.401L1903.59 103.375ZM1928.75 80.5938L1927.14 81.7783L1927.14 81.7834L1928.75 80.5938ZM1932.31 95.0938H1934.31V95.0842L1934.31 95.0746L1932.31 95.0938ZM1924.47 84L1922.76 85.0429L1922.77 85.05L1924.47 84ZM1909.38 94.25L1907.38 94.232L1907.38 94.241V94.25H1909.38ZM1911.5 114.406L1909.79 115.437L1909.79 115.446L1909.8 115.455L1911.5 114.406ZM1924.34 114.594L1922.65 113.525L1922.65 113.537L1924.34 114.594ZM1926.53 104.156L1928.53 104.183L1928.53 104.169V104.156H1926.53ZM1930.31 102.594C1930.31 109.206 1929.17 113.743 1927.21 116.538L1930.48 118.837C1933.14 115.049 1934.31 109.523 1934.31 102.594H1930.31ZM1927.21 116.538C1925.35 119.175 1922.43 120.625 1918 120.625V124.625C1923.4 124.625 1927.71 122.783 1930.48 118.837L1927.21 116.538ZM1918 120.625C1913.62 120.625 1910.71 119.209 1908.84 116.636L1905.6 118.989C1908.4 122.832 1912.67 124.625 1918 124.625V120.625ZM1908.84 116.641C1906.85 113.893 1905.67 109.562 1905.59 103.349L1901.59 103.401C1901.68 109.98 1902.92 115.274 1905.6 118.984L1908.84 116.641ZM1905.59 103.375V95.6562H1901.59V103.375H1905.59ZM1905.59 95.6562C1905.59 89.1306 1906.73 84.6605 1908.69 81.9095L1905.43 79.5905C1902.77 83.3395 1901.59 88.8069 1901.59 95.6562H1905.59ZM1908.69 81.9095C1910.54 79.3135 1913.47 77.875 1917.94 77.875V73.875C1912.53 73.875 1908.21 75.6865 1905.43 79.5905L1908.69 81.9095ZM1917.94 77.875C1922.38 77.875 1925.3 79.2745 1927.14 81.7783L1930.36 79.4092C1927.58 75.6213 1923.29 73.875 1917.94 73.875V77.875ZM1927.14 81.7834C1929.08 84.4075 1930.25 88.7329 1930.31 95.1129L1934.31 95.0746C1934.25 88.3712 1933.04 83.03 1930.36 79.4041L1927.14 81.7834ZM1930.31 95.0938V102.594H1934.31V95.0938H1930.31ZM1928.53 94.6875C1928.53 89.694 1927.85 85.6662 1926.17 82.95L1922.77 85.05C1923.84 86.7921 1924.53 89.8893 1924.53 94.6875H1928.53ZM1926.18 82.9571C1924.38 80.0262 1921.51 78.625 1917.94 78.625V82.625C1920.33 82.625 1921.8 83.4738 1922.76 85.0429L1926.18 82.9571ZM1917.94 78.625C1914.39 78.625 1911.53 80.0146 1909.76 82.9304L1913.18 85.0071C1914.12 83.4646 1915.57 82.625 1917.94 82.625V78.625ZM1909.76 82.9304C1908.12 85.6229 1907.42 89.4879 1907.38 94.232L1911.37 94.268C1911.42 89.7621 1912.11 86.7729 1913.18 85.0071L1909.76 82.9304ZM1907.38 94.25V103.5H1911.38V94.25H1907.38ZM1907.38 103.5C1907.38 108.533 1908.09 112.612 1909.79 115.437L1913.21 113.375C1912.08 111.492 1911.38 108.301 1911.38 103.5H1907.38ZM1909.8 115.455C1911.62 118.419 1914.46 119.906 1918 119.906V115.906C1915.75 115.906 1914.25 115.06 1913.2 113.357L1909.8 115.455ZM1918 119.906C1921.46 119.906 1924.26 118.511 1926.04 115.651L1922.65 113.537C1921.68 115.094 1920.24 115.906 1918 115.906V119.906ZM1926.03 115.662C1927.73 112.978 1928.47 109.043 1928.53 104.183L1924.53 104.13C1924.47 108.77 1923.75 111.793 1922.65 113.525L1926.03 115.662ZM1928.53 104.156V94.6875H1924.53V104.156H1928.53Z" fill="#331515"/>
<rect x="1802.5" y="2.5" width="195" height="195" stroke="black" stroke-width="5"/>
<path d="M104.812 122H99V83.4688L87.3438 87.75V82.5L103.906 76.2812H104.812V122Z" fill="black"/>
<path d="M104.812 122V124H106.812V122H104.812ZM99 122H97V124H99V122ZM99 83.4688H101V80.6035L98.3105 81.5914L99 83.4688ZM87.3438 87.75H85.3438V90.6152L88.0333 89.6274L87.3438 87.75ZM87.3438 82.5L86.6407 80.6276L85.3438 81.1146V82.5H87.3438ZM103.906 76.2812V74.2812H103.543L103.203 74.4089L103.906 76.2812ZM104.812 76.2812H106.812V74.2812H104.812V76.2812ZM104.812 120H99V124H104.812V120ZM101 122V83.4688H97V122H101ZM98.3105 81.5914L86.6542 85.8726L88.0333 89.6274L99.6895 85.3461L98.3105 81.5914ZM89.3438 87.75V82.5H85.3438V87.75H89.3438ZM88.0468 84.3724L104.609 78.1536L103.203 74.4089L86.6407 80.6276L88.0468 84.3724ZM103.906 78.2812H104.812V74.2812H103.906V78.2812ZM102.812 76.2812V122H106.812V76.2812H102.812Z" fill="#331515"/>
<rect x="2.5" y="2.5" width="195" height="195" stroke="black" stroke-width="5"/>
<path d="M1707.97 102C1706.76 103.438 1705.31 104.594 1703.62 105.469C1701.96 106.344 1700.12 106.781 1698.12 106.781C1695.5 106.781 1693.21 106.135 1691.25 104.844C1689.31 103.552 1687.81 101.74 1686.75 99.4062C1685.69 97.0521 1685.16 94.4583 1685.16 91.625C1685.16 88.5833 1685.73 85.8438 1686.88 83.4062C1688.04 80.9688 1689.69 79.1042 1691.81 77.8125C1693.94 76.5208 1696.42 75.875 1699.25 75.875C1703.75 75.875 1707.29 77.5625 1709.88 80.9375C1712.48 84.2917 1713.78 88.875 1713.78 94.6875V96.375C1713.78 105.229 1712.03 111.698 1708.53 115.781C1705.03 119.844 1699.75 121.927 1692.69 122.031H1691.56V117.156H1692.78C1697.55 117.073 1701.22 115.833 1703.78 113.438C1706.34 111.021 1707.74 107.208 1707.97 102ZM1699.06 102C1701 102 1702.78 101.406 1704.41 100.219C1706.05 99.0312 1707.25 97.5625 1708 95.8125V93.5C1708 89.7083 1707.18 86.625 1705.53 84.25C1703.89 81.875 1701.8 80.6875 1699.28 80.6875C1696.74 80.6875 1694.7 81.6667 1693.16 83.625C1691.61 85.5625 1690.84 88.125 1690.84 91.3125C1690.84 94.4167 1691.58 96.9792 1693.06 99C1694.56 101 1696.56 102 1699.06 102Z" fill="black"/>
<path d="M1707.97 102L1709.97 102.088L1710.23 96.2069L1706.44 100.713L1707.97 102ZM1703.62 105.469L1702.7 103.693L1702.7 103.698L1703.62 105.469ZM1691.25 104.844L1690.14 106.508L1690.15 106.513L1691.25 104.844ZM1686.75 99.4062L1684.93 100.229L1684.93 100.235L1686.75 99.4062ZM1686.88 83.4062L1685.07 82.5428L1685.07 82.5554L1686.88 83.4062ZM1709.88 80.9375L1708.29 82.1532L1708.3 82.164L1709.88 80.9375ZM1708.53 115.781L1710.05 117.087L1710.05 117.083L1708.53 115.781ZM1692.69 122.031V124.031H1692.7L1692.72 124.031L1692.69 122.031ZM1691.56 122.031H1689.56V124.031H1691.56V122.031ZM1691.56 117.156V115.156H1689.56V117.156H1691.56ZM1692.78 117.156V119.156H1692.8L1692.82 119.156L1692.78 117.156ZM1703.78 113.438L1705.15 114.898L1705.15 114.893L1703.78 113.438ZM1704.41 100.219L1703.24 98.5968L1703.23 98.604L1704.41 100.219ZM1708 95.8125L1709.84 96.6003L1710 96.223V95.8125H1708ZM1693.16 83.625L1694.72 84.8703L1694.73 84.8621L1693.16 83.625ZM1693.06 99L1691.45 100.181L1691.46 100.191L1691.46 100.2L1693.06 99ZM1706.44 100.713C1705.4 101.947 1704.16 102.938 1702.7 103.693L1704.55 107.244C1706.46 106.25 1708.12 104.928 1709.5 103.287L1706.44 100.713ZM1702.7 103.698C1701.33 104.413 1699.82 104.781 1698.12 104.781V108.781C1700.43 108.781 1702.58 108.274 1704.55 107.24L1702.7 103.698ZM1698.12 104.781C1695.84 104.781 1693.94 104.225 1692.35 103.174L1690.15 106.513C1692.47 108.046 1695.16 108.781 1698.12 108.781V104.781ZM1692.36 103.18C1690.76 102.115 1689.49 100.607 1688.57 98.5774L1684.93 100.235C1686.13 102.872 1687.86 104.989 1690.14 106.508L1692.36 103.18ZM1688.57 98.5835C1687.64 96.5121 1687.16 94.2024 1687.16 91.625H1683.16C1683.16 94.7143 1683.74 97.5921 1684.93 100.229L1688.57 98.5835ZM1687.16 91.625C1687.16 88.8393 1687.68 86.3959 1688.68 84.2571L1685.07 82.5554C1683.78 85.2916 1683.16 88.3274 1683.16 91.625H1687.16ZM1688.68 84.2697C1689.69 82.1507 1691.09 80.5941 1692.85 79.5215L1690.77 76.1035C1688.29 77.6142 1686.39 79.7868 1685.07 82.5428L1688.68 84.2697ZM1692.85 79.5215C1694.62 78.4456 1696.73 77.875 1699.25 77.875V73.875C1696.1 73.875 1693.25 74.5961 1690.77 76.1035L1692.85 79.5215ZM1699.25 77.875C1703.17 77.875 1706.11 79.3054 1708.29 82.1531L1711.46 79.7219C1708.48 75.8196 1704.33 73.875 1699.25 73.875V77.875ZM1708.3 82.164C1710.54 85.058 1711.78 89.1573 1711.78 94.6875H1715.78C1715.78 88.5927 1714.42 83.5254 1711.45 79.711L1708.3 82.164ZM1711.78 94.6875V96.375H1715.78V94.6875H1711.78ZM1711.78 96.375C1711.78 105.039 1710.06 110.929 1707.01 114.48L1710.05 117.083C1714.01 112.466 1715.78 105.42 1715.78 96.375H1711.78ZM1707.02 114.476C1704 117.978 1699.34 119.933 1692.66 120.031L1692.72 124.031C1700.16 123.921 1706.06 121.709 1710.05 117.087L1707.02 114.476ZM1692.69 120.031H1691.56V124.031H1692.69V120.031ZM1693.56 122.031V117.156H1689.56V122.031H1693.56ZM1691.56 119.156H1692.78V115.156H1691.56V119.156ZM1692.82 119.156C1697.9 119.067 1702.11 117.738 1705.15 114.898L1702.42 111.977C1700.33 113.929 1697.2 115.079 1692.75 115.157L1692.82 119.156ZM1705.15 114.893C1708.24 111.979 1709.73 107.569 1709.97 102.088L1705.97 101.912C1705.75 106.847 1704.45 110.062 1702.41 111.982L1705.15 114.893ZM1699.06 104C1701.44 104 1703.63 103.261 1705.59 101.834L1703.23 98.604C1701.93 99.5515 1700.56 100 1699.06 100V104ZM1705.58 101.841C1707.5 100.455 1708.94 98.706 1709.84 96.6003L1706.16 95.0247C1705.56 96.419 1704.61 97.6071 1703.24 98.5969L1705.58 101.841ZM1710 95.8125V93.5H1706V95.8125H1710ZM1710 93.5C1710 89.427 1709.12 85.9108 1707.18 83.1108L1703.89 85.3892C1705.24 87.3392 1706 89.9897 1706 93.5H1710ZM1707.18 83.1108C1705.22 80.2879 1702.56 78.6875 1699.28 78.6875V82.6875C1701.04 82.6875 1702.55 83.4621 1703.89 85.3892L1707.18 83.1108ZM1699.28 78.6875C1696.14 78.6875 1693.51 79.9368 1691.58 82.3879L1694.73 84.8621C1695.88 83.3965 1697.34 82.6875 1699.28 82.6875V78.6875ZM1691.59 82.3797C1689.7 84.762 1688.84 87.8043 1688.84 91.3125H1692.84C1692.84 88.4457 1693.53 86.363 1694.72 84.8703L1691.59 82.3797ZM1688.84 91.3125C1688.84 94.7382 1689.66 97.7428 1691.45 100.181L1694.68 97.8187C1693.5 96.2155 1692.84 94.0952 1692.84 91.3125H1688.84ZM1691.46 100.2C1693.34 102.704 1695.93 104 1699.06 104V100C1697.19 100 1695.78 99.2964 1694.66 97.8L1691.46 100.2Z" fill="#331515"/>
<rect x="1602.5" y="2.5" width="195" height="195" stroke="black" stroke-width="5"/>
<path d="M1513.41 88.375C1513.41 90.6458 1512.8 92.6667 1511.59 94.4375C1510.41 96.2083 1508.79 97.5938 1506.75 98.5938C1509.12 99.6146 1511 101.104 1512.38 103.062C1513.77 105.021 1514.47 107.24 1514.47 109.719C1514.47 113.656 1513.14 116.792 1510.47 119.125C1507.82 121.458 1504.33 122.625 1500 122.625C1495.62 122.625 1492.11 121.458 1489.47 119.125C1486.84 116.771 1485.53 113.635 1485.53 109.719C1485.53 107.26 1486.2 105.042 1487.53 103.062C1488.89 101.083 1490.75 99.5833 1493.12 98.5625C1491.1 97.5625 1489.51 96.1771 1488.34 94.4062C1487.18 92.6354 1486.59 90.625 1486.59 88.375C1486.59 84.5417 1487.82 81.5 1490.28 79.25C1492.74 77 1495.98 75.875 1500 75.875C1504 75.875 1507.23 77 1509.69 79.25C1512.17 81.5 1513.41 84.5417 1513.41 88.375ZM1508.69 109.594C1508.69 107.052 1507.88 104.979 1506.25 103.375C1504.65 101.771 1502.54 100.969 1499.94 100.969C1497.33 100.969 1495.24 101.76 1493.66 103.344C1492.09 104.927 1491.31 107.01 1491.31 109.594C1491.31 112.177 1492.07 114.208 1493.59 115.688C1495.14 117.167 1497.27 117.906 1500 117.906C1502.71 117.906 1504.83 117.167 1506.38 115.688C1507.92 114.188 1508.69 112.156 1508.69 109.594ZM1500 80.625C1497.73 80.625 1495.89 81.3333 1494.47 82.75C1493.07 84.1458 1492.38 86.0521 1492.38 88.4688C1492.38 90.7812 1493.06 92.6562 1494.44 94.0938C1495.83 95.5104 1497.69 96.2188 1500 96.2188C1502.31 96.2188 1504.16 95.5104 1505.53 94.0938C1506.93 92.6562 1507.62 90.7812 1507.62 88.4688C1507.62 86.1562 1506.91 84.2708 1505.47 82.8125C1504.03 81.3542 1502.21 80.625 1500 80.625Z" fill="black"/>
<path d="M1511.59 94.4375L1509.94 93.3102L1509.94 93.3169L1509.93 93.3236L1511.59 94.4375ZM1506.75 98.5938L1505.87 96.7976L1501.96 98.7123L1505.96 100.431L1506.75 98.5938ZM1512.38 103.062L1510.74 104.212L1510.74 104.218L1510.75 104.223L1512.38 103.062ZM1510.47 119.125L1509.15 117.62L1509.15 117.625L1510.47 119.125ZM1489.47 119.125L1488.13 120.614L1488.14 120.62L1488.15 120.625L1489.47 119.125ZM1487.53 103.062L1485.88 101.933L1485.88 101.939L1485.87 101.945L1487.53 103.062ZM1493.12 98.5625L1493.91 100.4L1497.89 98.6902L1494.01 96.77L1493.12 98.5625ZM1490.28 79.25L1488.93 77.7747L1490.28 79.25ZM1509.69 79.25L1508.34 80.7254L1508.34 80.731L1509.69 79.25ZM1506.25 103.375L1504.84 104.789L1504.84 104.798L1506.25 103.375ZM1493.66 103.344L1492.24 101.93L1492.23 101.939L1493.66 103.344ZM1493.59 115.688L1492.2 117.121L1492.21 117.131L1493.59 115.688ZM1506.38 115.688L1507.76 117.131L1507.77 117.121L1506.38 115.688ZM1494.47 82.75L1493.05 81.3358L1494.47 82.75ZM1494.44 94.0938L1492.99 95.4762L1493 95.4869L1493.01 95.4974L1494.44 94.0938ZM1505.53 94.0938L1504.1 92.7005L1504.1 92.7008L1505.53 94.0938ZM1511.41 88.375C1511.41 90.2688 1510.91 91.8918 1509.94 93.3102L1513.25 95.5648C1514.69 93.4415 1515.41 91.0229 1515.41 88.375H1511.41ZM1509.93 93.3236C1508.95 94.7828 1507.62 95.9417 1505.87 96.7976L1507.63 100.39C1509.97 99.2458 1511.86 97.6338 1513.25 95.5514L1509.93 93.3236ZM1505.96 100.431C1508.02 101.318 1509.59 102.581 1510.74 104.212L1514.01 101.913C1512.41 99.6271 1510.23 97.9113 1507.54 96.7563L1505.96 100.431ZM1510.75 104.223C1511.89 105.832 1512.47 107.642 1512.47 109.719H1516.47C1516.47 106.837 1515.65 104.21 1514 101.902L1510.75 104.223ZM1512.47 109.719C1512.47 113.151 1511.33 115.711 1509.15 117.62L1511.79 120.63C1514.94 117.872 1516.47 114.161 1516.47 109.719H1512.47ZM1509.15 117.625C1506.94 119.567 1503.96 120.625 1500 120.625V124.625C1504.7 124.625 1508.7 123.35 1511.79 120.625L1509.15 117.625ZM1500 120.625C1495.99 120.625 1492.99 119.564 1490.79 117.625L1488.15 120.625C1491.24 123.353 1495.26 124.625 1500 124.625V120.625ZM1490.8 117.636C1488.65 115.706 1487.53 113.137 1487.53 109.719H1483.53C1483.53 114.133 1485.04 117.836 1488.13 120.614L1490.8 117.636ZM1487.53 109.719C1487.53 107.646 1488.09 105.818 1489.19 104.18L1485.87 101.945C1484.31 104.265 1483.53 106.875 1483.53 109.719H1487.53ZM1489.18 104.192C1490.31 102.55 1491.86 101.283 1493.91 100.4L1492.34 96.725C1489.64 97.8834 1487.47 99.6166 1485.88 101.933L1489.18 104.192ZM1494.01 96.77C1492.29 95.9169 1490.97 94.7618 1490.01 93.3059L1486.67 95.5066C1488.05 97.5923 1489.92 99.2081 1492.24 100.355L1494.01 96.77ZM1490.01 93.3059C1489.08 91.8821 1488.59 90.2589 1488.59 88.375H1484.59C1484.59 90.9911 1485.28 93.3888 1486.67 95.5066L1490.01 93.3059ZM1488.59 88.375C1488.59 85.0101 1489.65 82.5381 1491.63 80.7253L1488.93 77.7747C1485.99 80.4619 1484.59 84.0733 1484.59 88.375H1488.59ZM1491.63 80.7253C1493.65 78.8797 1496.37 77.875 1500 77.875V73.875C1495.59 73.875 1491.83 75.1203 1488.93 77.7747L1491.63 80.7253ZM1500 77.875C1503.61 77.875 1506.32 78.878 1508.34 80.7253L1511.04 77.7747C1508.14 75.122 1504.39 73.875 1500 73.875V77.875ZM1508.34 80.731C1510.34 82.5453 1511.41 85.0155 1511.41 88.375H1515.41C1515.41 84.0678 1513.99 80.4547 1511.03 77.769L1508.34 80.731ZM1510.69 109.594C1510.69 106.584 1509.71 103.976 1507.66 101.952L1504.84 104.798C1506.04 105.982 1506.69 107.521 1506.69 109.594H1510.69ZM1507.66 101.961C1505.63 99.9254 1502.99 98.9688 1499.94 98.9688V102.969C1502.1 102.969 1503.66 103.616 1504.84 104.789L1507.66 101.961ZM1499.94 98.9688C1496.9 98.9688 1494.26 99.9099 1492.24 101.93L1495.07 104.758C1496.22 103.611 1497.77 102.969 1499.94 102.969V98.9688ZM1492.23 101.939C1490.24 103.957 1489.31 106.576 1489.31 109.594H1493.31C1493.31 107.445 1493.95 105.897 1495.08 104.749L1492.23 101.939ZM1489.31 109.594C1489.31 112.591 1490.21 115.186 1492.2 117.121L1494.99 114.254C1493.94 113.231 1493.31 111.763 1493.31 109.594H1489.31ZM1492.21 117.131C1494.22 119.059 1496.9 119.906 1500 119.906V115.906C1497.64 115.906 1496.05 115.275 1494.98 114.244L1492.21 117.131ZM1500 119.906C1503.08 119.906 1505.75 119.056 1507.76 117.131L1504.99 114.244C1503.91 115.277 1502.34 115.906 1500 115.906V119.906ZM1507.77 117.121C1509.77 115.173 1510.69 112.585 1510.69 109.594H1506.69C1506.69 111.728 1506.06 113.202 1504.98 114.254L1507.77 117.121ZM1500 78.625C1497.28 78.625 1494.9 79.4928 1493.05 81.3358L1495.88 84.1642C1496.87 83.1738 1498.18 82.625 1500 82.625V78.625ZM1493.05 81.3358C1491.2 83.1876 1490.38 85.6481 1490.38 88.4688H1494.38C1494.38 86.456 1494.94 85.1041 1495.88 84.1642L1493.05 81.3358ZM1490.38 88.4688C1490.38 91.2064 1491.2 93.6063 1492.99 95.4762L1495.88 92.7113C1494.92 91.7062 1494.38 90.3561 1494.38 88.4688H1490.38ZM1493.01 95.4974C1494.85 97.358 1497.25 98.2188 1500 98.2188V94.2188C1498.13 94.2188 1496.82 93.6628 1495.86 92.6901L1493.01 95.4974ZM1500 98.2188C1502.75 98.2188 1505.15 97.358 1506.97 95.4867L1504.1 92.7008C1503.16 93.6628 1501.87 94.2188 1500 94.2188V98.2188ZM1506.97 95.487C1508.78 93.6185 1509.62 91.215 1509.62 88.4688H1505.62C1505.62 90.3475 1505.07 91.694 1504.1 92.7005L1506.97 95.487ZM1509.62 88.4688C1509.62 85.7047 1508.75 83.2906 1506.89 81.4085L1504.04 84.2165C1505.06 85.2511 1505.62 86.6078 1505.62 88.4688H1509.62ZM1506.89 81.4085C1505.05 79.537 1502.7 78.625 1500 78.625V82.625C1501.72 82.625 1503.01 83.1714 1504.04 84.2165L1506.89 81.4085Z" fill="#331515"/>
<rect x="1402.5" y="2.5" width="195" height="195" stroke="black" stroke-width="5"/>
<path d="M1315.19 79.75L1296.34 122H1290.28L1309.06 81.25H1284.44V76.5H1315.19V79.75Z" fill="black"/>
<path d="M1315.19 79.75L1317.01 80.5647L1317.19 80.1758V79.75H1315.19ZM1296.34 122V124H1297.64L1298.17 122.815L1296.34 122ZM1290.28 122L1288.46 121.163L1287.16 124H1290.28V122ZM1309.06 81.25L1310.88 82.0871L1312.19 79.25H1309.06V81.25ZM1284.44 81.25H1282.44V83.25H1284.44V81.25ZM1284.44 76.5V74.5H1282.44V76.5H1284.44ZM1315.19 76.5H1317.19V74.5H1315.19V76.5ZM1313.36 78.9353L1294.52 121.185L1298.17 122.815L1317.01 80.5647L1313.36 78.9353ZM1296.34 120H1290.28V124H1296.34V120ZM1292.1 122.837L1310.88 82.0871L1307.25 80.4129L1288.46 121.163L1292.1 122.837ZM1309.06 79.25H1284.44V83.25H1309.06V79.25ZM1286.44 81.25V76.5H1282.44V81.25H1286.44ZM1284.44 78.5H1315.19V74.5H1284.44V78.5ZM1313.19 76.5V79.75H1317.19V76.5H1313.19Z" fill="#331515"/>
<rect x="1202.5" y="2.5" width="195" height="195" stroke="black" stroke-width="5"/>
<path d="M1108.5 76.4688V81.375H1107.44C1102.94 81.4583 1099.35 82.7917 1096.69 85.375C1094.02 87.9583 1092.48 91.5938 1092.06 96.2812C1094.46 93.5312 1097.73 92.1562 1101.88 92.1562C1105.83 92.1562 1108.99 93.5521 1111.34 96.3438C1113.72 99.1354 1114.91 102.74 1114.91 107.156C1114.91 111.844 1113.62 115.594 1111.06 118.406C1108.52 121.219 1105.1 122.625 1100.81 122.625C1096.46 122.625 1092.93 120.958 1090.22 117.625C1087.51 114.271 1086.16 109.958 1086.16 104.688V102.469C1086.16 94.0938 1087.94 87.6979 1091.5 83.2812C1095.08 78.8438 1100.41 76.5729 1107.47 76.4688H1108.5ZM1100.91 96.9688C1098.93 96.9688 1097.1 97.5625 1095.44 98.75C1093.77 99.9375 1092.61 101.427 1091.97 103.219V105.344C1091.97 109.094 1092.81 112.115 1094.5 114.406C1096.19 116.698 1098.29 117.844 1100.81 117.844C1103.42 117.844 1105.46 116.885 1106.94 114.969C1108.44 113.052 1109.19 110.542 1109.19 107.438C1109.19 104.312 1108.43 101.792 1106.91 99.875C1105.41 97.9375 1103.41 96.9688 1100.91 96.9688Z" fill="black"/>
<path d="M1108.5 76.4688H1110.5V74.4688H1108.5V76.4688ZM1108.5 81.375V83.375H1110.5V81.375H1108.5ZM1107.44 81.375V79.375H1107.42L1107.4 79.3753L1107.44 81.375ZM1096.69 85.375L1095.3 83.9385L1096.69 85.375ZM1092.06 96.2812L1090.07 96.1042L1089.53 102.238L1093.57 97.595L1092.06 96.2812ZM1111.34 96.3438L1109.81 97.6331L1109.82 97.6397L1111.34 96.3438ZM1111.06 118.406L1109.58 117.059L1109.58 117.065L1111.06 118.406ZM1090.22 117.625L1088.66 118.881L1088.67 118.886L1090.22 117.625ZM1091.5 83.2812L1089.94 82.0247L1089.94 82.0256L1091.5 83.2812ZM1107.47 76.4688V74.4688H1107.45L1107.44 74.469L1107.47 76.4688ZM1091.97 103.219L1090.09 102.541L1089.97 102.869V103.219H1091.97ZM1106.94 114.969L1105.36 113.736L1105.35 113.747L1106.94 114.969ZM1106.91 99.875L1105.32 101.099L1105.33 101.109L1105.34 101.118L1106.91 99.875ZM1106.5 76.4688V81.375H1110.5V76.4688H1106.5ZM1108.5 79.375H1107.44V83.375H1108.5V79.375ZM1107.4 79.3753C1102.51 79.466 1098.4 80.9309 1095.3 83.9385L1098.08 86.8115C1100.31 84.6524 1103.37 83.4507 1107.47 83.3747L1107.4 79.3753ZM1095.3 83.9385C1092.2 86.9377 1090.52 91.07 1090.07 96.1042L1094.05 96.4583C1094.44 92.1175 1095.84 88.979 1098.08 86.8115L1095.3 83.9385ZM1093.57 97.595C1095.53 95.3432 1098.22 94.1562 1101.88 94.1562V90.1562C1097.24 90.1562 1093.38 91.7193 1090.55 94.9675L1093.57 97.595ZM1101.88 94.1562C1105.3 94.1562 1107.88 95.3333 1109.81 97.6331L1112.87 95.0544C1110.1 91.7709 1106.37 90.1562 1101.88 90.1562V94.1562ZM1109.82 97.6397C1111.83 99.9991 1112.91 103.113 1112.91 107.156H1116.91C1116.91 102.366 1115.61 98.2717 1112.87 95.0478L1109.82 97.6397ZM1112.91 107.156C1112.91 111.466 1111.74 114.696 1109.58 117.059L1112.54 119.753C1115.51 116.492 1116.91 112.221 1116.91 107.156H1112.91ZM1109.58 117.065C1107.47 119.4 1104.62 120.625 1100.81 120.625V124.625C1105.59 124.625 1109.57 123.037 1112.55 119.747L1109.58 117.065ZM1100.81 120.625C1097.05 120.625 1094.09 119.222 1091.77 116.364L1088.67 118.886C1091.76 122.694 1095.87 124.625 1100.81 124.625V120.625ZM1091.77 116.369C1089.41 113.444 1088.16 109.606 1088.16 104.688H1084.16C1084.16 110.311 1085.61 115.098 1088.66 118.881L1091.77 116.369ZM1088.16 104.688V102.469H1084.16V104.688H1088.16ZM1088.16 102.469C1088.16 94.3408 1089.89 88.4632 1093.06 84.5369L1089.94 82.0256C1085.99 86.9326 1084.16 93.8467 1084.16 102.469H1088.16ZM1093.06 84.5378C1096.18 80.6706 1100.88 78.5662 1107.5 78.4685L1107.44 74.469C1099.94 74.5796 1093.99 77.0169 1089.94 82.0247L1093.06 84.5378ZM1107.47 78.4688H1108.5V74.4688H1107.47V78.4688ZM1100.91 94.9688C1098.5 94.9688 1096.27 95.701 1094.28 97.1212L1096.6 100.379C1097.94 99.424 1099.36 98.9688 1100.91 98.9688V94.9688ZM1094.28 97.1212C1092.3 98.5263 1090.88 100.337 1090.09 102.541L1093.85 103.897C1094.35 102.517 1095.24 101.349 1096.6 100.379L1094.28 97.1212ZM1089.97 103.219V105.344H1093.97V103.219H1089.97ZM1089.97 105.344C1089.97 109.386 1090.88 112.862 1092.89 115.592L1096.11 113.22C1094.75 111.367 1093.97 108.802 1093.97 105.344H1089.97ZM1092.89 115.592C1094.9 118.32 1097.57 119.844 1100.81 119.844V115.844C1099.02 115.844 1097.48 115.076 1096.11 113.22L1092.89 115.592ZM1100.81 119.844C1103.98 119.844 1106.63 118.639 1108.52 116.191L1105.35 113.747C1104.29 115.131 1102.85 115.844 1100.81 115.844V119.844ZM1108.51 116.201C1110.36 113.846 1111.19 110.864 1111.19 107.438H1107.19C1107.19 110.22 1106.52 112.258 1105.36 113.736L1108.51 116.201ZM1111.19 107.438C1111.19 103.988 1110.34 100.99 1108.47 98.6319L1105.34 101.118C1106.51 102.593 1107.19 104.637 1107.19 107.438H1111.19ZM1108.49 98.6507C1106.6 96.2124 1104.01 94.9688 1100.91 94.9688V98.9688C1102.8 98.9688 1104.21 99.6626 1105.32 101.099L1108.49 98.6507Z" fill="#331515"/>
<rect x="1002.5" y="2.5" width="195" height="195" stroke="black" stroke-width="5"/>
<path d="M888.469 99.1875L890.781 76.5H914.094V81.8438H895.688L894.312 94.25C896.542 92.9375 899.073 92.2812 901.906 92.2812C906.052 92.2812 909.344 93.6562 911.781 96.4062C914.219 99.1354 915.438 102.833 915.438 107.5C915.438 112.188 914.167 115.885 911.625 118.594C909.104 121.281 905.573 122.625 901.031 122.625C897.01 122.625 893.729 121.51 891.188 119.281C888.646 117.052 887.198 113.969 886.844 110.031H892.312C892.667 112.635 893.594 114.604 895.094 115.938C896.594 117.25 898.573 117.906 901.031 117.906C903.719 117.906 905.823 116.99 907.344 115.156C908.885 113.323 909.656 110.792 909.656 107.562C909.656 104.521 908.823 102.083 907.156 100.25C905.51 98.3958 903.312 97.4688 900.562 97.4688C898.042 97.4688 896.062 98.0208 894.625 99.125L893.094 100.375L888.469 99.1875Z" fill="black"/>
<path d="M888.469 99.1875L886.479 98.9847L886.305 100.697L887.971 101.125L888.469 99.1875ZM890.781 76.5V74.5H888.975L888.792 76.2972L890.781 76.5ZM914.094 76.5H916.094V74.5H914.094V76.5ZM914.094 81.8438V83.8438H916.094V81.8438H914.094ZM895.688 81.8438V79.8438H893.897L893.7 81.6234L895.688 81.8438ZM894.312 94.25L892.325 94.0297L891.885 98.0004L895.327 95.9735L894.312 94.25ZM911.781 96.4062L910.285 97.7329L910.29 97.7385L911.781 96.4062ZM911.625 118.594L910.167 117.225L910.166 117.225L911.625 118.594ZM886.844 110.031V108.031H884.656L884.852 110.21L886.844 110.031ZM892.312 110.031L894.294 109.762L894.059 108.031H892.312V110.031ZM895.094 115.938L893.765 117.432L893.771 117.438L893.777 117.443L895.094 115.938ZM907.344 115.156L905.813 113.869L905.804 113.879L907.344 115.156ZM907.156 100.25L905.661 101.578L905.668 101.587L905.676 101.595L907.156 100.25ZM894.625 99.125L893.407 97.5389L893.383 97.5569L893.36 97.5757L894.625 99.125ZM893.094 100.375L892.596 102.312L893.575 102.564L894.359 101.924L893.094 100.375ZM890.458 99.3903L892.771 76.7028L888.792 76.2972L886.479 98.9847L890.458 99.3903ZM890.781 78.5H914.094V74.5H890.781V78.5ZM912.094 76.5V81.8438H916.094V76.5H912.094ZM914.094 79.8438H895.688V83.8438H914.094V79.8438ZM893.7 81.6234L892.325 94.0297L896.3 94.4703L897.675 82.0641L893.7 81.6234ZM895.327 95.9735C897.22 94.859 899.395 94.2812 901.906 94.2812V90.2812C898.751 90.2812 895.863 91.016 893.298 92.5265L895.327 95.9735ZM901.906 94.2812C905.561 94.2812 908.278 95.4686 910.285 97.7329L913.278 95.0796C910.41 91.8439 906.543 90.2812 901.906 90.2812V94.2812ZM910.29 97.7385C912.317 100.009 913.438 103.185 913.438 107.5H917.438C917.438 102.481 916.12 98.2619 913.273 95.074L910.29 97.7385ZM913.438 107.5C913.438 111.818 912.276 114.978 910.167 117.225L913.083 119.962C916.058 116.793 917.438 112.557 917.438 107.5H913.438ZM910.166 117.225C908.108 119.419 905.158 120.625 901.031 120.625V124.625C905.988 124.625 910.1 123.143 913.084 119.962L910.166 117.225ZM901.031 120.625C897.399 120.625 894.616 119.628 892.506 117.778L889.869 120.785C892.842 123.392 896.622 124.625 901.031 124.625V120.625ZM892.506 117.778C890.416 115.944 889.152 113.371 888.836 109.852L884.852 110.21C885.244 114.567 886.876 118.16 889.869 120.785L892.506 117.778ZM886.844 112.031H892.312V108.031H886.844V112.031ZM890.331 110.301C890.729 113.229 891.81 115.694 893.765 117.432L896.422 114.443C895.378 113.514 894.604 112.042 894.294 109.762L890.331 110.301ZM893.777 117.443C895.721 119.144 898.206 119.906 901.031 119.906V115.906C898.94 115.906 897.466 115.356 896.411 114.432L893.777 117.443ZM901.031 119.906C904.228 119.906 906.931 118.787 908.883 116.433L905.804 113.879C904.715 115.192 903.209 115.906 901.031 115.906V119.906ZM908.874 116.443C910.811 114.141 911.656 111.098 911.656 107.562H907.656C907.656 110.485 906.96 112.505 905.813 113.869L908.874 116.443ZM911.656 107.562C911.656 104.142 910.71 101.185 908.636 98.9047L905.676 101.595C906.936 102.981 907.656 104.9 907.656 107.562H911.656ZM908.652 98.9223C906.583 96.591 903.814 95.4688 900.562 95.4688V99.4688C902.811 99.4688 904.438 100.201 905.661 101.578L908.652 98.9223ZM900.562 95.4688C897.77 95.4688 895.307 96.079 893.407 97.5389L895.843 100.711C896.818 99.9627 898.313 99.4688 900.562 99.4688V95.4688ZM893.36 97.5757L891.829 98.8257L894.359 101.924L895.89 100.674L893.36 97.5757ZM893.591 98.4378L888.966 97.2503L887.971 101.125L892.596 102.312L893.591 98.4378Z" fill="#331515"/>
<rect x="802.5" y="2.5" width="195" height="195" stroke="black" stroke-width="5"/>
<path d="M710.219 106.719H716.531V111.438H710.219V122H704.406V111.438H683.688V108.031L704.062 76.5H710.219V106.719ZM690.25 106.719H704.406V84.4062L703.719 85.6562L690.25 106.719Z" fill="black"/>
<path d="M710.219 106.719H708.219V108.719H710.219V106.719ZM716.531 106.719H718.531V104.719H716.531V106.719ZM716.531 111.438V113.438H718.531V111.438H716.531ZM710.219 111.438V109.438H708.219V111.438H710.219ZM710.219 122V124H712.219V122H710.219ZM704.406 122H702.406V124H704.406V122ZM704.406 111.438H706.406V109.438H704.406V111.438ZM683.688 111.438H681.688V113.438H683.688V111.438ZM683.688 108.031L682.008 106.946L681.688 107.441V108.031H683.688ZM704.062 76.5V74.5H702.974L702.383 75.4145L704.062 76.5ZM710.219 76.5H712.219V74.5H710.219V76.5ZM690.25 106.719L688.565 105.641L686.597 108.719H690.25V106.719ZM704.406 106.719V108.719H706.406V106.719H704.406ZM704.406 84.4062H706.406L702.654 83.4424L704.406 84.4062ZM703.719 85.6562L705.404 86.7337L705.439 86.678L705.471 86.6201L703.719 85.6562ZM710.219 108.719H716.531V104.719H710.219V108.719ZM714.531 106.719V111.438H718.531V106.719H714.531ZM716.531 109.438H710.219V113.438H716.531V109.438ZM708.219 111.438V122H712.219V111.438H708.219ZM710.219 120H704.406V124H710.219V120ZM706.406 122V111.438H702.406V122H706.406ZM704.406 109.438H683.688V113.438H704.406V109.438ZM685.688 111.438V108.031H681.688V111.438H685.688ZM685.367 109.117L705.742 77.5855L702.383 75.4145L682.008 106.946L685.367 109.117ZM704.062 78.5H710.219V74.5H704.062V78.5ZM708.219 76.5V106.719H712.219V76.5H708.219ZM690.25 108.719H704.406V104.719H690.25V108.719ZM706.406 106.719V84.4062H702.406V106.719H706.406ZM702.654 83.4424L701.966 84.6924L705.471 86.6201L706.159 85.3701L702.654 83.4424ZM702.034 84.5788L688.565 105.641L691.935 107.796L705.404 86.7337L702.034 84.5788Z" fill="#331515"/>
<rect x="602.5" y="2.5" width="195" height="195" stroke="black" stroke-width="5"/>
<path d="M494.219 96.4375H498.562C501.292 96.3958 503.438 95.6771 505 94.2812C506.562 92.8854 507.344 91 507.344 88.625C507.344 83.2917 504.688 80.625 499.375 80.625C496.875 80.625 494.875 81.3438 493.375 82.7812C491.896 84.1979 491.156 86.0833 491.156 88.4375H485.375C485.375 84.8333 486.688 81.8438 489.312 79.4688C491.958 77.0729 495.312 75.875 499.375 75.875C503.667 75.875 507.031 77.0104 509.469 79.2812C511.906 81.5521 513.125 84.7083 513.125 88.75C513.125 90.7292 512.479 92.6458 511.188 94.5C509.917 96.3542 508.177 97.7396 505.969 98.6562C508.469 99.4479 510.396 100.76 511.75 102.594C513.125 104.427 513.812 106.667 513.812 109.312C513.812 113.396 512.479 116.635 509.812 119.031C507.146 121.427 503.677 122.625 499.406 122.625C495.135 122.625 491.656 121.469 488.969 119.156C486.302 116.844 484.969 113.792 484.969 110H490.781C490.781 112.396 491.562 114.312 493.125 115.75C494.688 117.188 496.781 117.906 499.406 117.906C502.198 117.906 504.333 117.177 505.812 115.719C507.292 114.26 508.031 112.167 508.031 109.438C508.031 106.792 507.219 104.76 505.594 103.344C503.969 101.927 501.625 101.198 498.562 101.156H494.219V96.4375Z" fill="black"/>
<path d="M494.219 96.4375V94.4375H492.219V96.4375H494.219ZM498.562 96.4375V98.4375H498.578L498.593 98.4373L498.562 96.4375ZM493.375 82.7812L494.758 84.2256L494.759 84.2252L493.375 82.7812ZM491.156 88.4375V90.4375H493.156V88.4375H491.156ZM485.375 88.4375H483.375V90.4375H485.375V88.4375ZM489.312 79.4688L490.654 80.9518L490.655 80.9513L489.312 79.4688ZM511.188 94.5L509.546 93.3568L509.542 93.363L509.538 93.3693L511.188 94.5ZM505.969 98.6562L505.202 96.8091L500.143 98.9092L505.365 100.563L505.969 98.6562ZM511.75 102.594L510.141 103.782L510.146 103.788L510.15 103.794L511.75 102.594ZM488.969 119.156L487.658 120.667L487.664 120.672L488.969 119.156ZM484.969 110V108H482.969V110H484.969ZM490.781 110H492.781V108H490.781V110ZM498.562 101.156L498.59 99.1564L498.576 99.1562H498.562V101.156ZM494.219 101.156H492.219V103.156H494.219V101.156ZM494.219 98.4375H498.562V94.4375H494.219V98.4375ZM498.593 98.4373C501.655 98.3905 504.314 97.5758 506.332 95.7728L503.668 92.7897C502.561 93.7784 500.929 94.4011 498.532 94.4377L498.593 98.4373ZM506.332 95.7728C508.379 93.9447 509.344 91.4852 509.344 88.625H505.344C505.344 90.5148 504.746 91.8261 503.668 92.7897L506.332 95.7728ZM509.344 88.625C509.344 85.652 508.602 83.0545 506.769 81.2136C504.933 79.3712 502.342 78.625 499.375 78.625V82.625C501.721 82.625 503.114 83.2122 503.935 84.0364C504.757 84.8621 505.344 86.2647 505.344 88.625H509.344ZM499.375 78.625C496.471 78.625 493.937 79.4727 491.991 81.3373L494.759 84.2252C495.813 83.2148 497.279 82.625 499.375 82.625V78.625ZM491.992 81.3369C490.059 83.1882 489.156 85.6269 489.156 88.4375H493.156C493.156 86.5397 493.733 85.2076 494.758 84.2256L491.992 81.3369ZM491.156 86.4375H485.375V90.4375H491.156V86.4375ZM487.375 88.4375C487.375 85.3868 488.457 82.9399 490.654 80.9518L487.971 77.9857C484.918 80.7476 483.375 84.2799 483.375 88.4375H487.375ZM490.655 80.9513C492.882 78.9347 495.735 77.875 499.375 77.875V73.875C494.89 73.875 491.035 75.2111 487.97 77.9862L490.655 80.9513ZM499.375 77.875C503.312 77.875 506.135 78.9093 508.105 80.7446L510.832 77.8179C507.927 75.1115 504.022 73.875 499.375 73.875V77.875ZM508.105 80.7446C510.052 82.5581 511.125 85.1357 511.125 88.75H515.125C515.125 84.281 513.76 80.5461 510.832 77.8179L508.105 80.7446ZM511.125 88.75C511.125 90.2642 510.639 91.7888 509.546 93.3568L512.829 95.6432C514.32 93.5028 515.125 91.1941 515.125 88.75H511.125ZM509.538 93.3693C508.5 94.8836 507.077 96.0309 505.202 96.8091L506.736 100.503C509.277 99.4483 511.333 97.8248 512.837 95.6307L509.538 93.3693ZM505.365 100.563C507.525 101.247 509.074 102.338 510.141 103.782L513.359 101.405C511.717 99.1832 509.412 97.6488 506.573 96.7496L505.365 100.563ZM510.15 103.794C511.226 105.229 511.812 107.03 511.812 109.312H515.812C515.812 106.304 515.024 103.625 513.35 101.394L510.15 103.794ZM511.812 109.312C511.812 112.916 510.659 115.582 508.476 117.544L511.149 120.519C514.299 117.689 515.812 113.876 515.812 109.312H511.812ZM508.476 117.544C506.244 119.548 503.283 120.625 499.406 120.625V124.625C504.071 124.625 508.047 123.306 511.149 120.519L508.476 117.544ZM499.406 120.625C495.512 120.625 492.527 119.58 490.273 117.64L487.664 120.672C490.785 123.358 494.759 124.625 499.406 124.625V120.625ZM490.279 117.645C488.086 115.743 486.969 113.261 486.969 110H482.969C482.969 114.323 484.518 117.944 487.658 120.667L490.279 117.645ZM484.969 112H490.781V108H484.969V112ZM488.781 110C488.781 112.876 489.742 115.355 491.771 117.222L494.479 114.278C493.383 113.27 492.781 111.916 492.781 110H488.781ZM491.771 117.222C493.785 119.075 496.404 119.906 499.406 119.906V115.906C497.159 115.906 495.59 115.3 494.479 114.278L491.771 117.222ZM499.406 119.906C502.538 119.906 505.249 119.083 507.217 117.143L504.408 114.295C503.418 115.271 501.858 115.906 499.406 115.906V119.906ZM507.217 117.143C509.186 115.202 510.031 112.527 510.031 109.438H506.031C506.031 111.806 505.398 113.319 504.408 114.295L507.217 117.143ZM510.031 109.438C510.031 106.356 509.066 103.717 506.908 101.836L504.279 104.851C505.372 105.803 506.031 107.227 506.031 109.438H510.031ZM506.908 101.836C504.801 99.9997 501.93 99.2019 498.59 99.1564L498.535 103.156C501.32 103.194 503.136 103.854 504.279 104.851L506.908 101.836ZM498.562 99.1562H494.219V103.156H498.562V99.1562ZM496.219 101.156V96.4375H492.219V101.156H496.219Z" fill="#331515"/>
<rect x="402.5" y="2.5" width="195" height="195" stroke="black" stroke-width="5"/>
<path d="M315.625 122H285.812V117.844L301.562 100.344C303.896 97.6979 305.5 95.5521 306.375 93.9062C307.271 92.2396 307.719 90.5208 307.719 88.75C307.719 86.375 307 84.4271 305.562 82.9062C304.125 81.3854 302.208 80.625 299.812 80.625C296.938 80.625 294.698 81.4479 293.094 83.0938C291.51 84.7188 290.719 86.9896 290.719 89.9062H284.938C284.938 85.7188 286.281 82.3333 288.969 79.75C291.677 77.1667 295.292 75.875 299.812 75.875C304.042 75.875 307.385 76.9896 309.844 79.2188C312.302 81.4271 313.531 84.375 313.531 88.0625C313.531 92.5417 310.677 97.875 304.969 104.062L292.781 117.281H315.625V122Z" fill="black"/>
<path d="M315.625 122V124H317.625V122H315.625ZM285.812 122H283.812V124H285.812V122ZM285.812 117.844L284.326 116.506L283.812 117.076V117.844H285.812ZM301.562 100.344L303.049 101.682L303.056 101.674L303.063 101.667L301.562 100.344ZM306.375 93.9062L304.613 92.9594L304.609 92.9674L306.375 93.9062ZM293.094 83.0938L291.662 81.6978L291.661 81.698L293.094 83.0938ZM290.719 89.9062V91.9062H292.719V89.9062H290.719ZM284.938 89.9062H282.938V91.9062H284.938V89.9062ZM288.969 79.75L287.588 78.3028L287.583 78.3081L288.969 79.75ZM309.844 79.2188L308.5 80.7003L308.507 80.7066L309.844 79.2188ZM304.969 104.062L303.499 102.706L303.498 102.707L304.969 104.062ZM292.781 117.281L291.311 115.926L288.217 119.281H292.781V117.281ZM315.625 117.281H317.625V115.281H315.625V117.281ZM315.625 120H285.812V124H315.625V120ZM287.812 122V117.844H283.812V122H287.812ZM287.299 119.182L303.049 101.682L300.076 99.0058L284.326 116.506L287.299 119.182ZM303.063 101.667C305.425 98.9879 307.154 96.7016 308.141 94.8451L304.609 92.9674C303.846 94.4026 302.367 96.408 300.062 99.0209L303.063 101.667ZM308.137 94.8531C309.178 92.9159 309.719 90.8739 309.719 88.75H305.719C305.719 90.1678 305.364 91.5633 304.613 92.9594L308.137 94.8531ZM309.719 88.75C309.719 85.9385 308.852 83.4753 307.016 81.5324L304.109 84.2801C305.148 85.3788 305.719 86.8115 305.719 88.75H309.719ZM307.016 81.5324C305.145 79.5526 302.671 78.625 299.812 78.625V82.625C301.746 82.625 303.105 83.2182 304.109 84.2801L307.016 81.5324ZM299.812 78.625C296.542 78.625 293.732 79.5738 291.662 81.6978L294.526 84.4897C295.664 83.322 297.333 82.625 299.812 82.625V78.625ZM291.661 81.698C289.619 83.7946 288.719 86.6233 288.719 89.9062H292.719C292.719 87.3559 293.402 85.6429 294.526 84.4895L291.661 81.698ZM290.719 87.9062H284.938V91.9062H290.719V87.9062ZM286.938 89.9062C286.938 86.1891 288.11 83.3499 290.355 81.1919L287.583 78.3081C284.453 81.3168 282.938 85.2484 282.938 89.9062H286.938ZM290.349 81.1972C292.611 79.0399 295.692 77.875 299.812 77.875V73.875C294.891 73.875 290.743 75.2934 287.588 78.3028L290.349 81.1972ZM299.812 77.875C303.686 77.875 306.502 78.8887 308.5 80.7003L311.187 77.7372C308.268 75.0905 304.397 73.875 299.812 73.875V77.875ZM308.507 80.7066C310.492 82.4893 311.531 84.8694 311.531 88.0625H315.531C315.531 83.8806 314.112 80.3649 311.18 77.7309L308.507 80.7066ZM311.531 88.0625C311.531 91.7514 309.131 96.6009 303.499 102.706L306.439 105.419C312.223 99.1491 315.531 93.332 315.531 88.0625H311.531ZM303.498 102.707L291.311 115.926L294.252 118.637L306.439 105.418L303.498 102.707ZM292.781 119.281H315.625V115.281H292.781V119.281ZM313.625 117.281V122H317.625V117.281H313.625Z" fill="#331515"/>
<rect x="202.5" y="2.5" width="195" height="195" stroke="black" stroke-width="5"/>
</svg>
