<svg width="1600" height="1000" xmlns="http://www.w3.org/2000/svg">
 <title>earth-2</title>

 <g>
  <title>Layer 1</title>
  <path fill="#ffaa56" opacity="NaN" d="m1341,429" id="svg_3"/>
  <path fill="#ffffff" opacity="NaN" d="m0,528.42107l116.84211,-78.94739" id="svg_21"/>
  <path fill="#ffffff" opacity="NaN" d="m3.15789,514.73686l90.52632,-89.4737" id="svg_22"/>
  <path fill="#4f2a07" d="m176.84211,347.36844c141.05264,-20 267.36843,45.26316 330.52633,45.26316c63.1579,0 54.73684,11.57895 128.42106,-28.42105c73.68421,-40 62.10527,-73.68421 143.1579,-16.84211c81.05263,56.84211 37.89474,85.26316 147.36843,61.05263c109.47369,-24.21053 109.47369,-87.36842 185.26316,-94.73685c75.78948,-7.36842 38.94737,-72.63158 151.57895,4.21053c112.63158,76.84211 156.84211,122.10527 204.21053,82.10527c47.36842,-40 28.42105,-41.05263 78.94737,-55.78948c50.52632,-14.73684 73.68421,-11.57895 73.68416,-11.57896c0.00005,0.00001 8.4211,210.52634 8.42105,690.52632c0.00005,0.00002 -1656.84211,-8.42103 -1656.84211,-8.42105c0,0.00002 15.78947,63.15792 15.78947,-656.84211l189.47369,-10.5263l0.00001,0z" id="svg_24"/>
 </g>
</svg>