<svg width="1097" height="460" viewBox="0 0 1097 460" fill="none" xmlns="http://www.w3.org/2000/svg">
<path d="M36 47L1 164V459H1096V71L1041 176L1022 79L983 167L951 71C935.667 103 904.8 166.4 904 164C903.2 161.6 882.333 101 872 71L842 176C824.333 137.333 787.4 58.4 781 52C774.6 45.6 752.333 126 742 167L738 85L651 164L643 71L579 164C575 125 566.8 45.4 566 39C565.2 32.6 526.333 127.667 507 176C498 119.667 479.2 5.8 476 1C472.8 -3.8 446.667 129 434 196V47C423.333 92.6667 402 185 402 189C402 193 398.667 121.333 397 85L338 189L329 79L289 161L285 60L234 157V47L184 164L176 33L133 164C129.333 122.333 122 37.8 122 33C122 28.2 91.3333 113.667 76 157V47L36 157V47Z" fill="#49FB70" stroke="black"/>
</svg>
