<svg width="11" height="6" viewBox="0 0 11 6" fill="none" xmlns="http://www.w3.org/2000/svg">
<path d="M1.03125 0.00911587C1.00547 0.0124308 0.967656 0.0215468 0.947891 0.0281766C0.914375 0.0397789 0.635078 0.236188 0.636797 0.24779C0.636797 0.250276 1.30367 0.656353 2.1175 1.15028L3.59906 2.04779L3.91445 2.35856C4.08805 2.52928 4.22898 2.67017 4.22727 2.67182C4.22555 2.67348 4.02445 2.71077 3.78125 2.75552C3.53805 2.79945 3.23898 2.85414 3.11695 2.87652C2.99406 2.89889 2.89008 2.91713 2.88406 2.91713C2.87805 2.91713 2.69328 2.72983 2.47242 2.5011C2.2275 2.24668 2.05047 2.07017 2.01867 2.04779C1.95422 2.00304 1.83305 1.94171 1.79352 1.93508C1.76344 1.92928 1.50477 1.96823 1.49445 1.97901C1.49187 1.98232 1.50648 2.16547 1.52625 2.38674C1.54687 2.60801 1.56234 2.79448 1.56148 2.80193C1.55977 2.81685 1.56406 2.81851 0.846484 2.49033C0.619609 2.38674 0.410781 2.29475 0.382422 2.28564C0.266406 2.24917 0.0971094 2.27403 0.0326562 2.33702C0.0146094 2.35442 0 2.37514 0 2.38425C0 2.3942 0.191641 2.5732 0.550859 2.89724C0.853359 3.16989 1.11375 3.40359 1.12836 3.41602L1.15586 3.4384L1.12234 3.46492C1.07937 3.49972 1.05703 3.54696 1.05703 3.60663C1.05703 3.64889 1.05961 3.65552 1.08281 3.67459C1.12664 3.70939 1.25039 3.7384 1.39648 3.74751L1.43086 3.75L1.69898 4.09392C1.84594 4.28287 1.9757 4.44448 1.98602 4.45193C2.01352 4.47431 2.12437 4.47265 2.18797 4.44945C2.28078 4.4163 2.2782 4.42127 2.34695 4.13536C2.38047 3.99613 2.40883 3.88177 2.40969 3.88011C2.41141 3.87928 2.49477 3.88425 2.59617 3.89088C2.89953 3.91077 3.25359 3.91989 3.72969 3.91989C4.32008 3.91989 4.57187 3.90994 5.02133 3.86934C5.12445 3.86022 5.21812 3.85359 5.23016 3.85525C5.24562 3.85691 5.36336 3.95221 5.5868 4.14365L5.92023 4.42956L5.92109 5.21436C5.92109 5.64696 5.92281 6 5.92453 6C5.92625 6 6.01391 5.99254 6.11875 5.98343C6.32586 5.96519 6.37484 5.95359 6.44102 5.90801C6.4625 5.89309 6.49516 5.85994 6.51234 5.83425C6.55016 5.77956 6.52352 5.83508 7.13969 4.53729C7.57281 3.62569 7.63898 3.49227 7.65703 3.48729C7.66906 3.48398 7.72922 3.47569 7.79023 3.46823C8.04805 3.43674 8.52758 3.35221 8.90312 3.27265C10.0865 3.01989 10.8058 2.72072 10.9622 2.41657C10.9931 2.35525 10.9957 2.3453 10.9957 2.27901C10.9957 2.21602 10.9931 2.20276 10.9673 2.15304C10.9141 2.04862 10.8281 2.00138 10.5531 1.92348C10.322 1.85801 10.303 1.85138 10.1527 1.7826C10.0023 1.71381 9.95242 1.70138 9.78398 1.69061C9.53133 1.67403 9.33453 1.70801 9.04062 1.81906C8.97703 1.84309 8.91687 1.86464 8.90742 1.86796C8.89797 1.87127 8.80945 1.88867 8.70977 1.90691C8.61094 1.92514 8.39781 1.96409 8.23711 1.99309C7.32961 2.15801 7.07266 2.20442 7.05719 2.20442C7.04773 2.20442 6.78562 2.10912 6.47453 1.99227C4.44211 1.23066 2.73453 0.590884 1.56492 0.152486C1.13094 -0.0099449 1.14211 -0.00745871 1.03125 0.00911587Z" fill="#451C53"/>
</svg>
