<svg width="36" height="47" viewBox="0 0 36 47" fill="none" xmlns="http://www.w3.org/2000/svg">
<path d="M15.4997 12C17.4997 7.6 27.3336 4.66667 29.0003 5C29.0003 5 26.5 2.5 24 1.5C21.5 0.5 16.5 1 16.5 1C11.5 2 7.99975 4.5 5 8.5C2.74212 11.5108 1.00005 20.5 1.00006 24.5C1.00007 32 3.50008 36 5.50028 39C6.99394 41.2403 12.2451 43.9272 16 45C19.5 46 23.1543 45.9339 26.5 44.5C30 43 32.8336 40.3333 34.0003 38.5C34.0003 38.5 31 39 29.0003 38.5C27.0006 38 19.4997 37.3122 17 34.5C13.4997 30.5622 13.4997 27.5 13.4997 23.5C13.4997 18 13.9088 15.5 15.4997 12Z" fill="#FCF550" stroke="#FCF550"/>
</svg>
