<svg width="1438" height="559" viewBox="0 0 1438 559" fill="none" xmlns="http://www.w3.org/2000/svg">
<circle cx="649.5" cy="136.5" r="3.5" fill="#FBEA51"/>
<circle cx="1401.5" cy="229.5" r="3.5" fill="#FBEA51"/>
<circle cx="1395.5" cy="77.5" r="3.5" fill="#FBEA51"/>
<circle cx="1318.5" cy="149.5" r="3.5" fill="#FBEA51"/>
<circle cx="1312.5" cy="3.5" r="3.5" fill="#FBEA51"/>
<circle cx="1237.5" cy="90.5" r="3.5" fill="#FBEA51"/>
<circle cx="1185.5" cy="252.5" r="3.5" fill="#FBEA51"/>
<circle cx="1147.5" cy="156.5" r="3.5" fill="#FBEA51"/>
<circle cx="1085.5" cy="202.5" r="3.5" fill="#FBEA51"/>
<circle cx="1107.5" cy="72.5" r="3.5" fill="#FBEA51"/>
<circle cx="984.5" cy="41.5" r="3.5" fill="#FBEA51"/>
<circle cx="997.5" cy="156.5" r="3.5" fill="#FBEA51"/>
<circle cx="928.5" cy="209.5" r="3.5" fill="#FBEA51"/>
<circle cx="896.5" cy="117.5" r="3.5" fill="#FBEA51"/>
<circle cx="825.5" cy="59.5" r="3.5" fill="#FBEA51"/>
<circle cx="812.5" cy="150.5" r="3.5" fill="#FBEA51"/>
<circle cx="741.5" cy="216.5" r="3.5" fill="#FBEA51"/>
<circle cx="705.5" cy="123.5" r="3.5" fill="#FBEA51"/>
<circle cx="692.5" cy="163.5" r="3.5" fill="#FBEA51"/>
<circle cx="3.5" cy="218.5" r="3.5" fill="#FBEA51"/>
<circle cx="755.5" cy="311.5" r="3.5" fill="#FBEA51"/>
<circle cx="749.5" cy="159.5" r="3.5" fill="#FBEA51"/>
<circle cx="672.5" cy="231.5" r="3.5" fill="#FBEA51"/>
<circle cx="666.5" cy="85.5" r="3.5" fill="#FBEA51"/>
<circle cx="591.5" cy="172.5" r="3.5" fill="#FBEA51"/>
<circle cx="539.5" cy="334.5" r="3.5" fill="#FBEA51"/>
<circle cx="501.5" cy="238.5" r="3.5" fill="#FBEA51"/>
<circle cx="439.5" cy="284.5" r="3.5" fill="#FBEA51"/>
<circle cx="461.5" cy="154.5" r="3.5" fill="#FBEA51"/>
<circle cx="338.5" cy="123.5" r="3.5" fill="#FBEA51"/>
<circle cx="351.5" cy="238.5" r="3.5" fill="#FBEA51"/>
<circle cx="282.5" cy="291.5" r="3.5" fill="#FBEA51"/>
<circle cx="250.5" cy="199.5" r="3.5" fill="#FBEA51"/>
<circle cx="179.5" cy="141.5" r="3.5" fill="#FBEA51"/>
<circle cx="166.5" cy="232.5" r="3.5" fill="#FBEA51"/>
<circle cx="95.5" cy="298.5" r="3.5" fill="#FBEA51"/>
<circle cx="59.5" cy="205.5" r="3.5" fill="#FBEA51"/>
<circle cx="46.5" cy="245.5" r="3.5" fill="#FBEA51"/>
<circle cx="682.5" cy="357.5" r="3.5" fill="#FBEA51"/>
<circle cx="1434.5" cy="450.5" r="3.5" fill="#FBEA51"/>
<circle cx="1428.5" cy="298.5" r="3.5" fill="#FBEA51"/>
<circle cx="1351.5" cy="370.5" r="3.5" fill="#FBEA51"/>
<circle cx="1345.5" cy="224.5" r="3.5" fill="#FBEA51"/>
<circle cx="1270.5" cy="311.5" r="3.5" fill="#FBEA51"/>
<circle cx="1218.5" cy="473.5" r="3.5" fill="#FBEA51"/>
<circle cx="1180.5" cy="377.5" r="3.5" fill="#FBEA51"/>
<circle cx="1118.5" cy="423.5" r="3.5" fill="#FBEA51"/>
<circle cx="1140.5" cy="293.5" r="3.5" fill="#FBEA51"/>
<circle cx="1017.5" cy="262.5" r="3.5" fill="#FBEA51"/>
<circle cx="1030.5" cy="377.5" r="3.5" fill="#FBEA51"/>
<circle cx="961.5" cy="430.5" r="3.5" fill="#FBEA51"/>
<circle cx="929.5" cy="338.5" r="3.5" fill="#FBEA51"/>
<circle cx="858.5" cy="280.5" r="3.5" fill="#FBEA51"/>
<circle cx="845.5" cy="371.5" r="3.5" fill="#FBEA51"/>
<circle cx="774.5" cy="437.5" r="3.5" fill="#FBEA51"/>
<circle cx="738.5" cy="344.5" r="3.5" fill="#FBEA51"/>
<circle cx="725.5" cy="384.5" r="3.5" fill="#FBEA51"/>
<circle cx="36.5" cy="439.5" r="3.5" fill="#FBEA51"/>
<circle cx="788.5" cy="532.5" r="3.5" fill="#FBEA51"/>
<circle cx="782.5" cy="380.5" r="3.5" fill="#FBEA51"/>
<circle cx="705.5" cy="452.5" r="3.5" fill="#FBEA51"/>
<circle cx="699.5" cy="306.5" r="3.5" fill="#FBEA51"/>
<circle cx="624.5" cy="393.5" r="3.5" fill="#FBEA51"/>
<circle cx="572.5" cy="555.5" r="3.5" fill="#FBEA51"/>
<circle cx="534.5" cy="459.5" r="3.5" fill="#FBEA51"/>
<circle cx="472.5" cy="505.5" r="3.5" fill="#FBEA51"/>
<circle cx="494.5" cy="375.5" r="3.5" fill="#FBEA51"/>
<circle cx="371.5" cy="344.5" r="3.5" fill="#FBEA51"/>
<circle cx="384.5" cy="459.5" r="3.5" fill="#FBEA51"/>
<circle cx="315.5" cy="512.5" r="3.5" fill="#FBEA51"/>
<circle cx="283.5" cy="420.5" r="3.5" fill="#FBEA51"/>
<circle cx="212.5" cy="362.5" r="3.5" fill="#FBEA51"/>
<circle cx="199.5" cy="453.5" r="3.5" fill="#FBEA51"/>
<circle cx="128.5" cy="519.5" r="3.5" fill="#FBEA51"/>
<circle cx="92.5" cy="426.5" r="3.5" fill="#FBEA51"/>
<circle cx="79.5" cy="466.5" r="3.5" fill="#FBEA51"/>
</svg>
